<svg width="351" height="65" viewBox="0 0 351 65" fill="none" xmlns="http://www.w3.org/2000/svg">
<rect x="1" y="1" width="349" height="63" rx="10" fill="#1C95ED" stroke="#0781D9" stroke-width="2"/>
<path d="M19.9024 18.8281C17.7378 18.8281 16 20.6498 16 22.8373V43.0963C16 45.2838 17.7378 47.1207 19.9024 47.1207H52.0976C54.2622 47.1207 56 45.2838 56 43.0963V22.8373C56 20.6498 54.2622 18.8281 52.0976 18.8281H19.9024ZM19.9024 20.7793H52.0976C52.3872 20.7793 52.6597 20.8632 52.9055 20.9775L37.204 35.8858C36.4837 36.5699 35.5481 36.5699 34.826 35.8858L19.0942 20.9775C19.3401 20.8632 19.6125 20.7793 19.9021 20.7793H19.9024ZM17.9817 22.6086L29.0944 33.1423L18.1646 44.0569C18.0274 43.773 17.9512 43.4471 17.9512 43.0965V22.8375C17.9512 22.7575 17.9741 22.6851 17.9817 22.6088V22.6086ZM54.0183 22.6086C54.0259 22.6848 54.0488 22.7572 54.0488 22.8373V43.0963C54.0488 43.4412 53.9688 43.7594 53.8354 44.0414L42.9359 33.1268L54.0183 22.6086ZM41.5183 34.4837L52.189 45.1696H52.0976H19.9024H19.8262L30.5121 34.4989L33.4847 37.3037C34.9004 38.6452 37.1299 38.6471 38.5456 37.3037L41.5183 34.4837Z" fill="white"/>
<path d="M108.375 26.1808C106.345 26.1808 104.74 26.859 103.561 28.2153C102.39 29.5632 101.804 31.4123 101.804 33.7627C101.804 36.1805 102.368 38.0507 103.497 39.3733C104.635 40.6875 106.252 41.3446 108.35 41.3446C109.639 41.3446 111.109 41.113 112.76 40.6496V42.5325C111.479 43.0126 109.9 43.2527 108.021 43.2527C105.3 43.2527 103.198 42.4271 101.716 40.776C100.241 39.1248 99.5042 36.7786 99.5042 33.7375C99.5042 31.8336 99.858 30.1655 100.566 28.7334C101.282 27.3013 102.309 26.1977 103.649 25.4227C104.997 24.6476 106.581 24.2601 108.4 24.2601C110.338 24.2601 112.031 24.6139 113.48 25.3216L112.57 27.1665C111.172 26.5094 109.773 26.1808 108.375 26.1808ZM128.429 36.0626C128.429 38.3203 127.86 40.0852 126.723 41.3573C125.586 42.6209 124.015 43.2527 122.01 43.2527C120.771 43.2527 119.672 42.9621 118.712 42.3808C117.751 41.7995 117.01 40.9655 116.488 39.8788C115.965 38.7921 115.704 37.52 115.704 36.0626C115.704 33.8049 116.269 32.0484 117.397 30.7932C118.526 29.5295 120.093 28.8977 122.098 28.8977C124.036 28.8977 125.573 29.5421 126.711 30.8311C127.856 32.12 128.429 33.8638 128.429 36.0626ZM117.878 36.0626C117.878 37.8317 118.231 39.1796 118.939 40.1062C119.647 41.0329 120.687 41.4963 122.06 41.4963C123.433 41.4963 124.474 41.0371 125.182 40.1189C125.898 39.1922 126.256 37.8401 126.256 36.0626C126.256 34.3019 125.898 32.9666 125.182 32.0568C124.474 31.1386 123.425 30.6794 122.035 30.6794C120.662 30.6794 119.626 31.1301 118.926 32.0315C118.227 32.9329 117.878 34.2766 117.878 36.0626ZM141.596 43V34.0407C141.596 32.9119 141.339 32.0694 140.825 31.5134C140.312 30.9574 139.507 30.6794 138.412 30.6794C136.963 30.6794 135.901 31.0712 135.228 31.8546C134.554 32.6381 134.217 33.9312 134.217 35.734V43H132.119V29.1504H133.825L134.166 31.0459H134.267C134.697 30.3635 135.299 29.837 136.074 29.4663C136.849 29.0872 137.713 28.8977 138.665 28.8977C140.333 28.8977 141.588 29.3021 142.43 30.1108C143.273 30.9111 143.694 32.1958 143.694 33.9649V43H141.596ZM152.489 41.5215C152.86 41.5215 153.218 41.4963 153.563 41.4457C153.908 41.3867 154.182 41.3278 154.384 41.2688V42.8736C154.157 42.9832 153.82 43.0716 153.374 43.139C152.935 43.2148 152.54 43.2527 152.186 43.2527C149.507 43.2527 148.167 41.8417 148.167 39.0195V30.7805H146.183V29.7696L148.167 28.8977L149.052 25.9407H150.265V29.1504H154.283V30.7805H150.265V38.9311C150.265 39.7651 150.463 40.4053 150.859 40.8518C151.255 41.2983 151.798 41.5215 152.489 41.5215ZM165.681 43L165.264 41.0287H165.163C164.473 41.8964 163.782 42.4861 163.091 42.7978C162.409 43.1011 161.554 43.2527 160.526 43.2527C159.153 43.2527 158.074 42.8989 157.291 42.1913C156.516 41.4836 156.128 40.4769 156.128 39.1711C156.128 36.3743 158.365 34.9084 162.838 34.7736L165.189 34.6978V33.8386C165.189 32.7518 164.953 31.9515 164.481 31.4376C164.018 30.9153 163.272 30.6542 162.244 30.6542C161.09 30.6542 159.784 31.008 158.327 31.7156L157.683 30.1108C158.365 29.7401 159.11 29.4495 159.919 29.2389C160.736 29.0283 161.554 28.923 162.371 28.923C164.022 28.923 165.243 29.2894 166.035 30.0223C166.836 30.7552 167.236 31.9304 167.236 33.5479V43H165.681ZM160.943 41.5215C162.249 41.5215 163.272 41.1635 164.013 40.4474C164.763 39.7314 165.138 38.7289 165.138 37.4399V36.1889L163.04 36.2774C161.372 36.3364 160.168 36.5975 159.426 37.0609C158.693 37.5158 158.327 38.2276 158.327 39.1964C158.327 39.9546 158.554 40.5317 159.009 40.9276C159.473 41.3236 160.117 41.5215 160.943 41.5215ZM177.105 43.2527C175.1 43.2527 173.546 42.6378 172.442 41.4078C171.347 40.1694 170.799 38.4214 170.799 36.1637C170.799 33.847 171.355 32.0568 172.467 30.7932C173.588 29.5295 175.18 28.8977 177.244 28.8977C177.909 28.8977 178.575 28.9693 179.24 29.1125C179.906 29.2557 180.428 29.4242 180.807 29.618L180.163 31.3997C179.7 31.2144 179.194 31.0627 178.646 30.9448C178.099 30.8184 177.615 30.7552 177.193 30.7552C174.38 30.7552 172.973 32.5496 172.973 36.1384C172.973 37.8401 173.314 39.1459 173.996 40.0557C174.687 40.9655 175.706 41.4204 177.054 41.4204C178.208 41.4204 179.392 41.1719 180.605 40.6749V42.5325C179.678 43.0126 178.512 43.2527 177.105 43.2527ZM188.377 41.5215C188.747 41.5215 189.105 41.4963 189.451 41.4457C189.796 41.3867 190.07 41.3278 190.272 41.2688V42.8736C190.045 42.9832 189.708 43.0716 189.261 43.139C188.823 43.2148 188.427 43.2527 188.073 43.2527C185.394 43.2527 184.055 41.8417 184.055 39.0195V30.7805H182.071V29.7696L184.055 28.8977L184.939 25.9407H186.153V29.1504H190.171V30.7805H186.153V38.9311C186.153 39.7651 186.351 40.4053 186.746 40.8518C187.142 41.2983 187.686 41.5215 188.377 41.5215ZM209.252 43V34.0407C209.252 32.9119 208.995 32.0694 208.481 31.5134C207.967 30.9574 207.163 30.6794 206.068 30.6794C204.61 30.6794 203.545 31.0754 202.871 31.8673C202.205 32.6591 201.872 33.9565 201.872 35.7593V43H199.775V23.3376H201.872V29.2894C201.872 30.0055 201.839 30.5994 201.771 31.0712H201.898C202.31 30.4056 202.896 29.8833 203.654 29.5042C204.421 29.1167 205.293 28.923 206.27 28.923C207.963 28.923 209.231 29.3273 210.073 30.1361C210.924 30.9364 211.35 32.2127 211.35 33.9649V43H209.252ZM221.522 43.2527C219.475 43.2527 217.857 42.6293 216.67 41.3825C215.49 40.1357 214.901 38.4045 214.901 36.1889C214.901 33.9565 215.448 32.1832 216.543 30.869C217.647 29.5548 219.125 28.8977 220.979 28.8977C222.714 28.8977 224.087 29.4705 225.098 30.6162C226.109 31.7535 226.615 33.2573 226.615 35.1275V36.4543H217.074C217.116 38.0802 217.525 39.3144 218.3 40.1568C219.083 40.9992 220.183 41.4204 221.598 41.4204C223.089 41.4204 224.563 41.1087 226.021 40.4853V42.3555C225.279 42.6757 224.576 42.9031 223.91 43.0379C223.253 43.1811 222.457 43.2527 221.522 43.2527ZM220.953 30.6542C219.841 30.6542 218.953 31.0164 218.287 31.7409C217.63 32.4654 217.243 33.4679 217.125 34.7484H224.365C224.365 33.4258 224.07 32.4148 223.481 31.7156C222.891 31.008 222.049 30.6542 220.953 30.6542ZM236.522 28.8977C237.137 28.8977 237.688 28.9482 238.177 29.0493L237.886 30.9953C237.313 30.869 236.808 30.8058 236.37 30.8058C235.249 30.8058 234.289 31.2607 233.489 32.1705C232.697 33.0804 232.301 34.2134 232.301 35.5697V43H230.203V29.1504H231.935L232.175 31.7156H232.276C232.79 30.8142 233.409 30.1192 234.133 29.6306C234.858 29.142 235.654 28.8977 236.522 28.8977ZM246.618 43.2527C244.571 43.2527 242.954 42.6293 241.766 41.3825C240.586 40.1357 239.997 38.4045 239.997 36.1889C239.997 33.9565 240.544 32.1832 241.639 30.869C242.743 29.5548 244.221 28.8977 246.075 28.8977C247.81 28.8977 249.183 29.4705 250.194 30.6162C251.205 31.7535 251.711 33.2573 251.711 35.1275V36.4543H242.17C242.212 38.0802 242.621 39.3144 243.396 40.1568C244.179 40.9992 245.279 41.4204 246.694 41.4204C248.185 41.4204 249.659 41.1087 251.117 40.4853V42.3555C250.375 42.6757 249.672 42.9031 249.006 43.0379C248.349 43.1811 247.553 43.2527 246.618 43.2527ZM246.049 30.6542C244.937 30.6542 244.049 31.0164 243.383 31.7409C242.726 32.4654 242.339 33.4679 242.221 34.7484H249.461C249.461 33.4258 249.166 32.4148 248.577 31.7156C247.987 31.008 247.145 30.6542 246.049 30.6542Z" fill="white"/>
</svg>
