<svg width="54" height="35" viewBox="0 0 54 35" fill="none" xmlns="http://www.w3.org/2000/svg">
<path d="M3.90244 2C1.7378 2 0 3.80282 0 5.96771V26.0172C0 28.1821 1.7378 30 3.90244 30H36.0976C38.2622 30 40 28.1821 40 26.0172V5.96771C40 3.80282 38.2622 2 36.0976 2H3.90244ZM3.90244 3.93104H36.0976C36.3872 3.93104 36.6597 4.01402 36.9055 4.12716L21.204 18.8813C20.4837 19.5583 19.5481 19.5583 18.826 18.8813L3.09424 4.12716C3.34005 4.01401 3.61254 3.93104 3.90215 3.93104H3.90244ZM1.98171 5.74139L13.0944 16.1661L2.16463 26.9679C2.02744 26.6869 1.95122 26.3644 1.95122 26.0174V5.9679C1.95122 5.8887 1.97409 5.81704 1.98171 5.74161V5.74139ZM38.0183 5.74139C38.0259 5.81682 38.0488 5.88848 38.0488 5.96769V26.0172C38.0488 26.3585 37.9688 26.6735 37.8354 26.9526L26.9359 16.1508L38.0183 5.74139ZM25.5183 17.4937L36.189 28.0691H36.0976H3.90244H3.82622L14.5121 17.5087L17.4847 20.2845C18.9004 21.6121 21.1299 21.614 22.5456 20.2845L25.5183 17.4937Z" fill="white"/>
</svg>
